# xmcd
#
# Track frame offsets:
#        187
#        13312
#        25600
#        35537
#        44512
#        55862
#        65937
#        78662
#        94500
#        106412
#        120762
#        137212
#        151437
#        165175
#        172837
#        188112
#        200112
#        217425
#        227200
#        234450
#        244862
#
# Disc length: 3424 seconds
#
# Revision: 0
# Processed by: cddbd v1.5.1PL0 Copyright (c) Steve Scherf et al.
# Submitted via: ExactAudioCopy v0.95a5
#
DISCID=250d5e15
DTITLE=Hank Williams - disc 8 On The Air
DYEAR=1995
DGENRE=
TTITLE0=I'm Not Coming Home Anymore
TTITLE1='Neath A Cold Gray Tomb Of Stone
TTITLE2=No. Not Now
TTITLE3=Are You Walkin' And A Talkin' For The Load ?
TTITLE4=Moanin' The Blues
TTITLE5=When God Dips His Love In My Heart
TTITLE6=talk /You're Gonna Change
TTITLE7=talk /I Just Don't Like Kind Of Living
TTITLE8=Lovesick Blues
TTITLE9=talk /Long Gone Lonesome Blues
TTITLE10=TALK WITH MINNIE PEARL
TTITLE11=talk /Why Don't You Love Me
TTITLE12=TALK WITH MINNIE PEARL
TTITLE13=talk /They'll Never Take Her Love From Me
TTITLE14=talk /Moanin' The Blues
TTITLE15=talk /Nobody's Lonesome For Me
TTITLE16=talk /Cold, Cold Heart
TTITLE17=talk /Dear John
TTITLE18=Baby, We're Really In Love
TTITLE19=I Can't Help It
TTITLE20=Old Country Church
EXTD=
EXTT0=
EXTT1=
EXTT2=
EXTT3=
EXTT4=
EXTT5=
EXTT6=
EXTT7=
EXTT8=
EXTT9=
EXTT10=
EXTT11=
EXTT12=
EXTT13=
EXTT14=
EXTT15=
EXTT16=
EXTT17=
EXTT18=
EXTT19=
EXTT20=
PLAYORDER=
